<svg xmlns="http://www.w3.org/2000/svg" xmlns:xlink="http://www.w3.org/1999/xlink" version="1.1" baseProfile="full" viewBox="0 0 200 200" width="200" height="200">
<g fill="black">
<path d="M 130.2 183.7 L 112.0 182.5 L 97.0 180.6 L 84.7 177.7 L 74.9 173.9 L 67.0 169.2 L 61.0 163.7 L 56.3 157.3 L 54.15256481170654 153.12443151474 L 52.0 155.4 L 48.6 158.9 L 45.0 162.3 L 37.8 168.7 L 34.3 171.8 L 30.7 174.8 L 27.2 177.7 L 23.444505500793458 180.70439558029176 L 23.5 184.7 L 20.2 183.3 L 11.7 174.6 L 13.4 173.4 L 17.2 171.2 L 28.9 164.3 L 41.2 157.1 L 44.0 155.60232553482055 L 44.0 95.0 L 14.0 95.0 L 14.0 91.0 L 44.0 91.0 L 50.0 86.0 L 61.0 95.0 L 56.0 99.0 L 56.0 151.03207550048828 L 59.6 154.7 L 65.0 159.3 L 70.9 163.1 L 78.1 166.2 L 87.0 168.6722222328186 L 87.0 125.31599998474121 L 85.4 126.5 L 80.1 130.0 L 74.6 133.5 L 68.7 136.7 L 62.4 139.7 L 61.5 138.2 L 66.5 133.6 L 71.4 129.1 L 76.1 124.8 L 80.6 120.6 L 84.7 116.5 L 88.7 112.3 L 92.3 108.2 L 95.7 104.2 L 98.8 100.1 L 101.02757682800294 96.91774740219117 L 101.0 96.9 L 102.0 95.5 L 111.1 103.4 L 112.3 106.8 L 108.45738725662231 106.33623638153077 L 107.5 107.4 L 103.6 111.4 L 99.5 115.3 L 95.0 119.1 L 91.24333333969116 122.12166662216187 L 99.0 126.0 L 148.0 126.0 L 154.0 121.0 L 165.0 130.0 L 160.0 134.0 L 160.0 158.0 L 148.0 164.0 L 148.0 156.0 L 99.0 156.0 L 99.0 163.0 L 87.48435373306275 168.7578230857849 L 98.4 170.4 L 112.7 171.5 L 130.4 171.9 L 151.9 171.5 L 177.7 170.4 L 189.0 169.9 L 178.2 183.5 L 152.1 184.0 Z M 99.0 130.0 L 99.0 152.0 L 148.0 152.0 L 148.0 130.0 Z M 166.1 127.4 L 163.2 124.0 L 160.0 120.7 L 156.6 117.3 L 152.9 114.0 L 149.1 110.6 L 145.0 107.3 L 140.8 103.8 L 136.4 100.2 L 137.3 98.6 L 142.7 100.5 L 147.9 102.7 L 152.8 105.2 L 157.4 107.8 L 161.8 110.7 L 166.1 113.6 L 170.1 116.7 L 173.8 120.0 L 177.4 123.3 L 180.8 126.9 L 182.0 131.3 L 179.8 135.3 L 175.4 136.5 L 171.4 134.4 L 168.9 130.9 Z M 76.6 89.6 L 77.2 92.7 L 77.4 95.8 L 77.3 98.9 L 76.8 102.1 L 75.9 105.3 L 74.6 108.5 L 70.9 111.1 L 66.4 110.5 L 63.7 106.8 L 64.3 102.3 L 65.8 100.5 L 67.1 98.6 L 68.2 96.6 L 69.0 94.6 L 69.7 92.4 L 70.2 90.1 L 70.5 87.6 L 70.5 85.0 L 70.4 82.1 L 69.6 79.2 L 71.2 78.5 L 72.7 81.2 L 74.4 83.9 L 75.0 85.3 L 75.0 85.0 L 80.0 85.0 L 80.0 28.0 L 92.0 34.0 L 111.22857141494751 34.0 L 111.8 33.2 L 113.0 30.7 L 114.3 28.3 L 116.7 23.7 L 118.0 21.5 L 119.2 19.3 L 120.3 17.2 L 121.5 15.1 L 122.13394432067871 13.889742660522462 L 122.0 13.8 L 122.475 13.23863639831543 L 122.6 13.0 L 122.64592084884643 13.03663902282715 L 123.1 12.5 L 132.0 20.5 L 133.1 23.9 L 128.77148151397705 23.302962970733642 L 126.4 25.3 L 122.4 28.5 L 118.2 31.7 L 115.9 33.3 L 114.82666664123535 34.0 L 157.0 34.0 L 163.0 29.0 L 174.0 38.0 L 169.0 42.0 L 169.0 85.0 L 169.47872343063355 84.60106382369995 L 169.5 84.5 L 169.5649582862854 84.52920141220093 L 175.0 80.0 L 186.0 89.0 L 181.0 92.0 L 177.3744680404663 93.51063833236694 L 174.8 96.6 L 171.4 100.4 L 169.6 102.4 L 167.6 104.3 L 165.5 106.2 L 163.7 108.4 L 162.2 107.5 L 163.5 104.9 L 164.4 102.2 L 166.0 97.2 L 166.8 94.9 L 167.4 92.6 L 168.1 90.5 L 168.45714282989502 89.0 L 76.39310340881347 89.0 Z M 92.0 71.0 L 92.0 85.0 L 157.0 85.0 L 157.0 71.0 Z M 92.0 54.0 L 92.0 67.0 L 157.0 67.0 L 157.0 54.0 Z M 46.0 50.2 L 44.0 47.2 L 41.8 44.2 L 39.3 41.2 L 36.6 38.2 L 33.7 35.2 L 30.5 32.2 L 27.1 29.2 L 23.4 26.2 L 24.3 24.6 L 28.8 26.4 L 33.1 28.2 L 37.2 30.3 L 41.1 32.7 L 44.8 35.2 L 48.2 37.9 L 51.4 40.7 L 54.4 43.8 L 57.1 47.0 L 59.6 50.3 L 60.2 54.9 L 57.5 58.5 L 52.9 59.1 L 49.3 56.4 L 47.7 53.3 Z M 92.0 38.0 L 92.0 50.0 L 157.0 50.0 L 157.0 38.0 Z " />
</g>
</svg>
